<svg id="Layer_1" data-name="Layer 1" xmlns="http://www.w3.org/2000/svg" viewBox="0 0 400 400"><title>joml</title><rect width="400" height="400" style="fill:#fff"/><path d="M28.58,30.49h75.13v37.3H69V330.52h34.72V368H28.58Z" style="fill:#7e7f7f"/><path d="M365.72,368H290.6V330.7h34.72V68H290.6V30.49h75.12Z" style="fill:#7e7f7f"/><path d="M221.23,101.33h46.82V248.6q0,28.88-5.08,44.43a62.91,62.91,0,0,1-24.76,32.61q-17.93,12.3-47.29,12.3-34.42,0-53-19.28T119.2,262.09L163.47,257q.79,20,5.87,28.24,7.62,12.54,23.17,12.54,15.72,0,22.22-9t6.5-37.22Z" style="fill:#231f20"/></svg>